<svg width="30" height="30" viewBox="0 0 30 30" fill="none" xmlns="http://www.w3.org/2000/svg">
<path fill-rule="evenodd" clip-rule="evenodd" d="M5.6875 5.6875V24.3125H24.3125V5.6875H5.6875ZM3.6875 5.625C3.6875 4.55495 4.55495 3.6875 5.625 3.6875H24.375C25.4451 3.6875 26.3125 4.55495 26.3125 5.625V24.375C26.3125 25.4451 25.4451 26.3125 24.375 26.3125H5.625C4.55495 26.3125 3.6875 25.4451 3.6875 24.375V5.625Z" fill="#50A627"/>
<path fill-rule="evenodd" clip-rule="evenodd" d="M20.625 1.8125C21.1773 1.8125 21.625 2.26022 21.625 2.8125V6.5625C21.625 7.11478 21.1773 7.5625 20.625 7.5625C20.0727 7.5625 19.625 7.11478 19.625 6.5625V2.8125C19.625 2.26022 20.0727 1.8125 20.625 1.8125Z" fill="#50A627"/>
<path fill-rule="evenodd" clip-rule="evenodd" d="M9.375 1.8125C9.92728 1.8125 10.375 2.26022 10.375 2.8125V6.5625C10.375 7.11478 9.92728 7.5625 9.375 7.5625C8.82272 7.5625 8.375 7.11478 8.375 6.5625V2.8125C8.375 2.26022 8.82272 1.8125 9.375 1.8125Z" fill="#50A627"/>
<path fill-rule="evenodd" clip-rule="evenodd" d="M3.6875 10.3125C3.6875 9.76022 4.13522 9.3125 4.6875 9.3125H25.3125C25.8648 9.3125 26.3125 9.76022 26.3125 10.3125C26.3125 10.8648 25.8648 11.3125 25.3125 11.3125H4.6875C4.13522 11.3125 3.6875 10.8648 3.6875 10.3125Z" fill="#50A627"/>
<path fill-rule="evenodd" clip-rule="evenodd" d="M10.7188 17.8125C10.7188 17.2602 11.1665 16.8125 11.7188 16.8125H18.2812C18.8335 16.8125 19.2812 17.2602 19.2812 17.8125C19.2812 18.3648 18.8335 18.8125 18.2812 18.8125H11.7188C11.1665 18.8125 10.7188 18.3648 10.7188 17.8125Z" fill="#50A627"/>
<path fill-rule="evenodd" clip-rule="evenodd" d="M15 13.5312C15.5523 13.5312 16 13.979 16 14.5312V21.0938C16 21.646 15.5523 22.0938 15 22.0938C14.4477 22.0938 14 21.646 14 21.0938V14.5312C14 13.979 14.4477 13.5312 15 13.5312Z" fill="#50A627"/>
</svg>
