<svg width="30" height="30" viewBox="0 0 30 30" fill="none" xmlns="http://www.w3.org/2000/svg">
<path fill-rule="evenodd" clip-rule="evenodd" d="M5.6875 5.6875V24.3125H24.3125V5.6875H5.6875ZM3.6875 5.625C3.6875 4.55495 4.55495 3.6875 5.625 3.6875H24.375C25.4451 3.6875 26.3125 4.55495 26.3125 5.625V24.375C26.3125 25.4451 25.4451 26.3125 24.375 26.3125H5.625C4.55495 26.3125 3.6875 25.4451 3.6875 24.375V5.625Z" fill="#99A8B4"/>
<path fill-rule="evenodd" clip-rule="evenodd" d="M20.625 1.8125C21.1773 1.8125 21.625 2.26022 21.625 2.8125V6.5625C21.625 7.11478 21.1773 7.5625 20.625 7.5625C20.0727 7.5625 19.625 7.11478 19.625 6.5625V2.8125C19.625 2.26022 20.0727 1.8125 20.625 1.8125Z" fill="#99A8B4"/>
<path fill-rule="evenodd" clip-rule="evenodd" d="M9.375 1.8125C9.92728 1.8125 10.375 2.26022 10.375 2.8125V6.5625C10.375 7.11478 9.92728 7.5625 9.375 7.5625C8.82272 7.5625 8.375 7.11478 8.375 6.5625V2.8125C8.375 2.26022 8.82272 1.8125 9.375 1.8125Z" fill="#99A8B4"/>
<path fill-rule="evenodd" clip-rule="evenodd" d="M3.6875 10.3125C3.6875 9.76022 4.13522 9.3125 4.6875 9.3125H25.3125C25.8648 9.3125 26.3125 9.76022 26.3125 10.3125C26.3125 10.8648 25.8648 11.3125 25.3125 11.3125H4.6875C4.13522 11.3125 3.6875 10.8648 3.6875 10.3125Z" fill="#99A8B4"/>
<path fill-rule="evenodd" clip-rule="evenodd" d="M18.5196 14.2929C18.9101 14.6834 18.9101 15.3166 18.5196 15.7071L12.8946 21.3321C12.5041 21.7226 11.8709 21.7226 11.4804 21.3321C11.0899 20.9416 11.0899 20.3084 11.4804 19.9179L17.1054 14.2929C17.4959 13.9024 18.1291 13.9024 18.5196 14.2929Z" fill="#99A8B4"/>
<path fill-rule="evenodd" clip-rule="evenodd" d="M11.4804 14.2929C11.8709 13.9024 12.5041 13.9024 12.8946 14.2929L18.5196 19.9179C18.9101 20.3084 18.9101 20.9416 18.5196 21.3321C18.1291 21.7226 17.4959 21.7226 17.1054 21.3321L11.4804 15.7071C11.0899 15.3166 11.0899 14.6834 11.4804 14.2929Z" fill="#99A8B4"/>
</svg>
