<svg width="200" height="25" viewBox="0 0 200 25" fill="none" xmlns="http://www.w3.org/2000/svg">
<path fill-rule="evenodd" clip-rule="evenodd" d="M25.1821 24.1874H27.668V0.340332H24.7118V15.9077C24.7118 18.006 24.7566 19.5001 24.8462 20.3899H24.7454C23.8272 19.4088 22.853 18.4621 21.8229 17.55L2.8096 0.340332H0.32373V24.1874H3.27988V8.34664C3.27988 6.88707 3.23509 5.47284 3.14549 4.10394H3.24632C4.0077 4.94775 4.9595 5.88289 6.10164 6.9094L25.1821 24.1874ZM111.694 24.1874H115.053L100.844 0.340332H98.223L84.0137 24.1874H87.2718L90.6646 18.4053H108.301L111.694 24.1874ZM92.0755 15.8732L99.4322 3.41983H99.4998L106.857 15.8732H92.0755ZM48.6518 24.1874H32.6845V8.2898H48.4732V10.3421H35.1929V14.8812H44.3746V16.9795H35.1929V21.9977H48.6518V24.1874ZM62.133 24.1874H59.6023V10.3421H51.9208V8.2898H69.7915V10.3421H62.133V24.1874ZM119.174 24.1874H132.342C133.671 24.1874 134.582 23.9817 135.074 23.5716C135.582 23.146 135.835 22.3401 135.835 21.1539V17.8694C135.835 16.6987 135.589 15.9077 135.096 15.497C134.604 15.0862 133.686 14.8812 132.342 14.8812H122.668C122.264 14.8812 121.996 14.8359 121.861 14.7445C121.742 14.6532 121.682 14.44 121.682 14.1057V11.1176C121.682 10.7833 121.742 10.5702 121.861 10.4795C121.996 10.3726 122.264 10.3198 122.668 10.3198H134.962V8.2898H122.6C121.301 8.2898 120.405 8.50971 119.913 8.9509C119.42 9.39208 119.174 10.1824 119.174 11.3233V13.8547C119.174 15.0409 119.42 15.8542 119.913 16.2954C120.405 16.7366 121.301 16.9572 122.6 16.9572H132.319C132.723 16.9572 132.984 17.01 133.103 17.1162C133.238 17.2076 133.305 17.4207 133.305 17.755V21.2222C133.305 21.5416 133.238 21.7541 133.103 21.861C132.984 21.9524 132.723 21.9977 132.319 21.9977H119.174V24.1874ZM140.725 24.1874H153.894C155.222 24.1874 156.133 23.9817 156.625 23.5716C157.133 23.146 157.387 22.3401 157.387 21.1539V17.8694C157.387 16.6987 157.141 15.9077 156.648 15.497C156.155 15.0862 155.237 14.8812 153.894 14.8812H144.219C143.816 14.8812 143.547 14.8359 143.413 14.7445C143.293 14.6532 143.233 14.44 143.233 14.1057V11.1176C143.233 10.7833 143.293 10.5702 143.413 10.4795C143.547 10.3726 143.816 10.3198 144.219 10.3198H156.514V8.2898H144.152C142.852 8.2898 141.957 8.50971 141.464 8.9509C140.971 9.39208 140.725 10.1824 140.725 11.3233V13.8547C140.725 15.0409 140.971 15.8542 141.464 16.2954C141.957 16.7366 142.852 16.9572 144.152 16.9572H153.871C154.274 16.9572 154.535 17.01 154.655 17.1162C154.789 17.2076 154.856 17.4207 154.856 17.755V21.2222C154.856 21.5416 154.789 21.7541 154.655 21.861C154.535 21.9524 154.274 21.9977 153.871 21.9977H140.725V24.1874ZM178.536 24.1874H162.568V8.2898H178.356V10.3421H165.076V14.8812H174.258V16.9795H165.076V21.9977H178.536V24.1874ZM189.486 24.1874H192.016V10.3421H199.675V8.2898H181.804V10.3421H189.486V24.1874Z" fill="#042742"/>
<path fill-rule="evenodd" clip-rule="evenodd" d="M27.9925 24.5278H25.0621L5.89139 7.16859C4.98202 6.35118 4.18971 5.58926 3.51643 4.88282C3.5751 6.00812 3.60439 7.16251 3.60439 8.34667V24.5278H0V0H2.9303L22.0322 17.2895L22.0335 17.2908C22.8808 18.0413 23.6907 18.8147 24.4632 19.6118C24.4128 18.7064 24.388 17.4702 24.388 15.9077V0H27.9925V24.5278ZM24.8112 19.9745C24.813 19.9995 24.8148 20.0246 24.8167 20.0489C24.8233 20.1349 24.8302 20.2174 24.8374 20.2946C24.8404 20.327 24.8435 20.3588 24.8466 20.3893H24.7458C24.6635 20.302 24.5808 20.214 24.4975 20.1267C23.6525 19.2396 22.7611 18.3803 21.8233 17.55L2.80999 0.340367H0.324123V24.1874H3.28027V8.34667C3.28027 7.03191 3.24393 5.75437 3.17133 4.51404C3.16997 4.49103 3.16862 4.46802 3.1672 4.44502C3.16233 4.36246 3.15725 4.28059 3.15198 4.19871C3.15001 4.16691 3.14798 4.13578 3.14589 4.10398H3.24671C3.32486 4.19059 3.40512 4.27855 3.48733 4.3672C4.20568 5.1413 5.07722 5.98849 6.10203 6.90943L25.1825 24.1874H27.6683V0.340367H24.7122V15.9077C24.7122 17.7083 24.7452 19.0644 24.8112 19.9745ZM115.639 24.5278H111.513L108.12 18.7457H90.8464L87.4536 24.5278H83.4288L98.0441 0H101.023L115.639 24.5278ZM90.6651 18.4053H108.301L111.694 24.1874H115.053L100.843 0.340367H98.2234L84.0141 24.1874H87.2723L90.6651 18.4053ZM32.3606 24.5278V7.94879H48.7971V10.6832H35.5175V14.5409H44.6992V17.3206H35.5175V21.6567H48.9764V24.5278H32.3606ZM44.375 14.8812V16.9796H35.1927V21.9977H48.6523V24.1874H32.685V8.28983H48.4729V10.3422H35.1927V14.8812H44.375ZM59.2786 24.5278V10.6832H51.5971V7.94879H70.1161V10.6832H62.4569V24.5278H59.2786ZM51.9212 10.3422V8.28983H69.792V10.3422H62.1328V24.1874H59.6027V10.3422H51.9212ZM118.85 24.5278V21.6567H132.32C132.511 21.6567 132.658 21.6459 132.765 21.6276C132.863 21.6107 132.903 21.591 132.911 21.5863C132.925 21.5714 132.981 21.4929 132.981 21.2223V17.755C132.981 17.6082 132.966 17.5114 132.947 17.4519C132.937 17.4194 132.928 17.4052 132.924 17.4005L132.91 17.391L132.894 17.3761C132.896 17.3788 132.866 17.3538 132.756 17.3314C132.654 17.3105 132.51 17.2976 132.32 17.2976H122.6C121.29 17.2976 120.29 17.0804 119.703 16.5546C119.099 16.014 118.85 15.07 118.85 13.8547V11.3233C118.85 10.1479 119.101 9.2304 119.703 8.69177C120.29 8.166 121.29 7.94879 122.6 7.94879H135.286V10.6602H122.667C122.478 10.6602 122.332 10.673 122.223 10.694C122.118 10.715 122.072 10.74 122.059 10.7495C122.055 10.7556 122.047 10.7712 122.038 10.8036C122.02 10.8673 122.006 10.9687 122.006 11.1176V14.1058C122.006 14.2553 122.02 14.3561 122.038 14.4197C122.045 14.4448 122.051 14.4597 122.056 14.4678C122.08 14.4793 122.129 14.4962 122.215 14.5111C122.327 14.5294 122.476 14.5409 122.667 14.5409H132.342C133.028 14.5409 133.618 14.593 134.106 14.7019C134.592 14.8109 134.998 14.98 135.298 15.2304C135.912 15.7413 136.16 16.671 136.16 17.8694V21.1539C136.16 22.3699 135.903 23.3125 135.276 23.8376C134.69 24.3261 133.677 24.5278 132.342 24.5278H118.85ZM122.052 10.7549L122.054 10.7536L122.052 10.7549ZM133.104 21.861C132.984 21.9517 132.723 21.9977 132.32 21.9977H119.174V24.1874H132.342C133.671 24.1874 134.581 23.9817 135.075 23.5717C135.582 23.1454 135.836 22.3394 135.836 21.1539V17.8694C135.836 16.6981 135.59 15.9077 135.097 15.497C134.604 15.0863 133.686 14.8812 132.342 14.8812H122.667C122.265 14.8812 121.996 14.8359 121.861 14.7445C121.742 14.6532 121.682 14.44 121.682 14.1058V11.1176C121.682 10.7833 121.742 10.5702 121.861 10.4788C121.996 10.3726 122.265 10.3198 122.667 10.3198H134.962V8.28983H122.6C121.302 8.28983 120.406 8.50974 119.913 8.95093C119.42 9.39212 119.174 10.1825 119.174 11.3233V13.8547C119.174 15.0409 119.42 15.8543 119.913 16.2955C120.406 16.7366 121.302 16.9566 122.6 16.9566H132.32C132.723 16.9566 132.984 17.01 133.104 17.1163C133.238 17.2076 133.305 17.4208 133.305 17.755V21.2223C133.305 21.5417 133.238 21.7541 133.104 21.861ZM140.401 24.5278V21.6567H153.871C154.063 21.6567 154.21 21.6459 154.316 21.6276C154.414 21.6107 154.454 21.591 154.462 21.5863C154.477 21.5714 154.533 21.4929 154.533 21.2223V17.755C154.533 17.6082 154.517 17.5114 154.499 17.4519C154.488 17.4194 154.479 17.4052 154.476 17.4005L154.462 17.391L154.446 17.3768C154.441 17.3734 154.406 17.3511 154.308 17.3314C154.205 17.3105 154.062 17.2976 153.871 17.2976H144.152C142.842 17.2976 141.841 17.0804 141.255 16.5546C140.65 16.014 140.401 15.07 140.401 13.8547V11.3233C140.401 10.1479 140.652 9.2304 141.255 8.69177C141.841 8.166 142.842 7.94879 144.152 7.94879H156.838V10.6602H144.219C144.029 10.6602 143.883 10.673 143.775 10.694C143.67 10.715 143.624 10.74 143.61 10.7495C143.607 10.7556 143.599 10.7712 143.59 10.8036C143.572 10.8673 143.558 10.9687 143.558 11.1176V14.1058C143.558 14.2553 143.572 14.3561 143.59 14.4197C143.597 14.4448 143.603 14.4597 143.607 14.4678C143.632 14.4793 143.681 14.4962 143.767 14.5111C143.878 14.5294 144.028 14.5409 144.219 14.5409H153.894C154.579 14.5409 155.169 14.593 155.657 14.7019C156.143 14.8109 156.55 14.98 156.85 15.2304C157.463 15.7413 157.712 16.671 157.712 17.8694V21.1539C157.712 22.3699 157.455 23.3125 156.828 23.8376C156.241 24.3261 155.229 24.5278 153.894 24.5278H140.401ZM143.603 10.7549L143.605 10.7536L143.603 10.7549ZM154.655 21.861C154.536 21.9517 154.274 21.9977 153.871 21.9977H140.725V24.1874H153.894C155.222 24.1874 156.133 23.9817 156.626 23.5717C157.133 23.1454 157.388 22.3394 157.388 21.1539V17.8694C157.388 16.6981 157.141 15.9077 156.648 15.497C156.155 15.0863 155.237 14.8812 153.894 14.8812H144.219C143.816 14.8812 143.547 14.8359 143.413 14.7445C143.293 14.6532 143.234 14.44 143.234 14.1058V11.1176C143.234 10.7833 143.293 10.5702 143.413 10.4788C143.547 10.3726 143.816 10.3198 144.219 10.3198H156.514V8.28983H144.152C142.853 8.28983 141.957 8.50974 141.464 8.95093C140.972 9.39212 140.725 10.1825 140.725 11.3233V13.8547C140.725 15.0409 140.972 15.8543 141.464 16.2955C141.957 16.7366 142.853 16.9566 144.152 16.9566H153.871C154.274 16.9566 154.536 17.01 154.655 17.1163C154.789 17.2076 154.857 17.4208 154.857 17.755V21.2223C154.857 21.5417 154.789 21.7541 154.655 21.861ZM162.244 24.5278V7.94879H178.681V10.6832H165.401V14.5409H174.582V17.3206H165.401V21.6567H178.86V24.5278H162.244ZM174.258 14.8812V16.9796H165.077V21.9977H178.536V24.1874H162.568V8.28983H178.357V10.3422H165.077V14.8812H174.258ZM192.341 24.5278H189.162V10.6832H181.48V7.94879H200V10.6832H192.341V24.5278ZM189.486 10.3422V24.1874H192.017V10.3422H199.676V8.28983H181.804V10.3422H189.486ZM92.0759 15.8732H106.857L99.5003 3.41987H99.4326L92.0759 15.8732ZM92.6592 15.5329H106.274L99.4664 4.00856L92.6592 15.5329Z" fill="#042742"/>
<path fill-rule="evenodd" clip-rule="evenodd" d="M111.694 24.1874H115.053L100.844 0.340332H98.223L84.0137 24.1874H87.2718L90.6646 18.4053H108.301L111.694 24.1874ZM92.0755 15.8732L99.4322 3.41983H99.4998L106.857 15.8732H92.0755Z" fill="#34AB47"/>
<path fill-rule="evenodd" clip-rule="evenodd" d="M115.639 24.5278H111.513L108.12 18.7457H90.8463L87.4535 24.5278H83.4287L98.044 0H101.023L115.639 24.5278ZM90.665 18.4053H108.301L111.694 24.1874H115.053L100.843 0.340367H98.2233L84.014 24.1874H87.2722L90.665 18.4053ZM92.0758 15.8732H106.857L99.5002 3.41987H99.4325L92.0758 15.8732ZM92.6591 15.5329H106.274L99.4664 4.00856L92.6591 15.5329Z" fill="#34AB47"/>
<path fill-rule="evenodd" clip-rule="evenodd" d="M25.1821 24.1874H27.668V0.340332H24.7118V15.9077C24.7118 18.006 24.7566 19.5001 24.8462 20.3899H24.7454C23.8272 19.4088 22.853 18.4621 21.8229 17.55L2.8096 0.340332H0.32373V24.1874H3.27988V8.34664C3.27988 6.88707 3.23509 5.47284 3.14549 4.10394H3.24632C4.0077 4.94775 4.9595 5.88289 6.10164 6.9094L25.1821 24.1874Z" fill="#34AB47"/>
<path fill-rule="evenodd" clip-rule="evenodd" d="M27.9925 24.5278H25.0621L5.89139 7.16859C4.98202 6.35118 4.18971 5.58926 3.51643 4.88282C3.5751 6.00812 3.60439 7.16251 3.60439 8.34667V24.5278H0V0H2.9303L22.0322 17.2895L22.0335 17.2908C22.8808 18.0413 23.6907 18.8147 24.4632 19.6118C24.4128 18.7064 24.388 17.4702 24.388 15.9077V0H27.9925V24.5278ZM24.8112 19.9745C24.813 19.9995 24.8148 20.0246 24.8167 20.0489C24.8233 20.1349 24.8302 20.2174 24.8374 20.2946C24.8404 20.327 24.8435 20.3588 24.8466 20.3893H24.7458C24.6635 20.302 24.5808 20.214 24.4975 20.1267C23.6525 19.2396 22.7611 18.3803 21.8233 17.55L2.80999 0.340367H0.324123V24.1874H3.28027V8.34667C3.28027 7.03191 3.24393 5.75437 3.17133 4.51404C3.16997 4.49103 3.16862 4.46802 3.1672 4.44502C3.16233 4.36246 3.15725 4.28059 3.15198 4.19871C3.15001 4.16691 3.14798 4.13578 3.14589 4.10398H3.24671C3.32486 4.19059 3.40512 4.27855 3.48733 4.3672C4.20568 5.1413 5.07722 5.98849 6.10203 6.90943L25.1825 24.1874H27.6683V0.340367H24.7122V15.9077C24.7122 17.7083 24.7452 19.0644 24.8112 19.9745Z" fill="#34AB47"/>
</svg>
